PathFileType	4	(X/Y/Z)	2014001\dynamic\2014001_C3_04.trc
DataRate	CameraRate	NumFrames	NumMarkers	Units	OrigDataRate	OrigDataStartFrame	OrigNumFrames
100.000000	100.000000	4	52	mm	100.000000	133	178
Frame#	Time	L_IAS			L_IPS			R_IPS			R_IAS			L_FTC			L_FLE			L_FME			L_FAX			L_TTC			L_FAL			L_TAM			L_FCC			L_FM1			L_FM2			L_FM5			R_FTC			R_FLE			R_FME			R_FAX			R_TTC			R_FAL			R_TAM			R_FCC			R_FM1			R_FM2			R_FM5			CV7			TV10			SXS			SJN			L_SIA			L_SRS			L_SAA			L_SAE			L_HLE			L_HME			L_UOA			L_RSP			L_UHE			L_HM2			L_HM5			R_SIA			R_SRS			R_SAA			R_SAE			R_HLE			R_HME			R_UOA			R_RSP			R_UHE			R_HM2			R_HM5			
		X1	Y1	Z1	X2	Y2	Z2	X3	Y3	Z3	X4	Y4	Z4	X5	Y5	Z5	X6	Y6	Z6	X7	Y7	Z7	X8	Y8	Z8	X9	Y9	Z9	X10	Y10	Z10	X11	Y11	Z11	X12	Y12	Z12	X13	Y13	Z13	X14	Y14	Z14	X15	Y15	Z15	X16	Y16	Z16	X17	Y17	Z17	X18	Y18	Z18	X19	Y19	Z19	X20	Y20	Z20	X21	Y21	Z21	X22	Y22	Z22	X23	Y23	Z23	X24	Y24	Z24	X25	Y25	Z25	X26	Y26	Z26	X27	Y27	Z27	X28	Y28	Z28	X29	Y29	Z29	X30	Y30	Z30	X31	Y31	Z31	X32	Y32	Z32	X33	Y33	Z33	X34	Y34	Z34	X35	Y35	Z35	X36	Y36	Z36	X37	Y37	Z37	X38	Y38	Z38	X39	Y39	Z39	X40	Y40	Z40	X41	Y41	Z41	X42	Y42	Z42	X43	Y43	Z43	X44	Y44	Z44	X45	Y45	Z45	X46	Y46	Z46	X47	Y47	Z47	X48	Y48	Z48	X49	Y49	Z49	X50	Y50	Z50	X51	Y51	Z51	X52	Y52	Z52	

134	1.33	116.0405273437501	864.0147094726567	-1010.461364746094	175.4414520263672	888.9296875000005	-824.8026733398442	263.9612731933595	883.6821899414067	-817.453979492188	354.1426696777345	851.608520507813	-989.2495117187505	52.25527954101565	775.6345214843755	-952.8372192382817	104.039291381836	431.3591918945315	-1057.845947265625	219.9642944335939	433.4143981933596	-1073.68603515625	101.7856750488282	367.4163818359376	-1042.40966796875	153.0844421386719	353.2459106445314	-1102.104858398438	154.1288299560547	54.34866714477542	-999.9234008789067	243.3474426269532	64.86880493164065	-1026.105224609375	204.8145751953126	17.81845474243165	-955.3474121093755	220.0062103271486	16.23072242736817	-1139.956298828125	158.1721496582032	29.83116340637208	-1145.33203125	115.6149826049805	19.0342197418213	-1087.733520507813	400.5598754882815	757.9050292968752	-880.7031860351567	400.5696411132815	419.1236572265627	-842.0003051757817	288.6427307128907	384.1113586425784	-878.1643676757817	404.0332031250002	379.6996459960939	-790.502319335938	368.0551757812501	326.7329711914064	-840.5604858398442	349.5599365234376	186.9895019531251	-543.3958740234377	274.7492675781251	164.4060821533204	-591.3985595703127	285.0360717773439	200.0501251220704	-500.3913879394534	271.3923645019532	47.25593566894533	-581.6148071289065	329.1384277343751	43.78753662109376	-579.3120727539065	367.8401489257814	69.15687561035159	-536.4006347656252	227.9823608398439	1350.7109375	-826.0982055664067	226.0728149414064	1114.269775390625	-785.3233032226567	217.2557983398439	1142.339477539063	-1020.961120605469	216.3870697021486	1300.698364257813	-961.384155273438	138.7898101806641	1147.735595703125	-773.9804077148442	144.9440917968751	1281.549438476563	-782.2749023437505	32.95349884033205	1282.400024414063	-843.9340820312505	40.88183593750001	1297.350463867188	-885.275268554688	-32.52853012084962	1014.5234375	-845.929809570313	49.14546585083011	982.0216674804692	-831.9981079101567	0.7839230298995976	983.7163085937505	-819.4411621093755	-15.56346702575684	775.7976684570317	-921.2825317382817	-75.63507080078128	782.3796386718755	-866.7597656250005	-29.1309051513672	690.3453369140627	-939.5347290039067	-81.49485778808597	705.7383422851565	-852.3158569335942	345.2389526367189	1160.309692382813	-782.1863403320317	318.2715454101564	1284.85986328125	-795.670776367188	416.7023620605471	1290.469848632813	-882.1547851562505	401.368347167969	1298.494018554688	-929.1872558593755	485.7932739257815	997.5625000000005	-927.1574707031255	409.4988403320315	972.388793945313	-901.1135864257817	455.7569274902346	965.1222534179692	-901.1820678710942	443.038024902344	817.1447143554692	-1070.720458984375	511.1338195800784	803.152709960938	-1026.80126953125	454.1340026855471	738.003112792969	-1122.476806640625	509.469665527344	721.8388671875002	-1037.103637695313	
135	1.34	115.351303100586	864.6999511718755	-1022.455261230469	173.5750732421876	890.4307250976567	-836.2659301757817	262.0138549804689	884.9458618164067	-828.4128417968755	353.5273742675782	853.3916015625005	-999.755737304688	51.38884735107425	776.5549926757817	-964.8424682617192	103.8335647583008	430.5034179687502	-1063.46240234375	219.9321136474611	432.2658691406252	-1078.942504882813	101.6727142333985	366.7792053222657	-1046.991088867188	153.0078277587891	351.8263244628907	-1106.316772460938	154.6678466796876	54.60560607910159	-999.9015502929692	243.6731567382814	64.67305755615237	-1026.276733398438	204.9994049072267	17.84416198730469	-955.3478393554692	220.0616607666017	16.48085975646973	-1139.9208984375	158.2877349853516	30.09931373596193	-1145.358520507813	115.7501831054688	19.2346477508545	-1087.719482421875	398.9301452636721	758.7187500000002	-892.0571289062505	402.0813598632815	418.6371154785159	-864.130004882813	290.2236633300782	383.4334716796876	-901.438110351563	405.733093261719	379.9834594726564	-813.2404174804692	369.602508544922	326.5374145507814	-862.7661132812505	350.1093750000001	192.6245574951173	-562.9410400390627	275.7902832031251	168.0834960937501	-610.754333496094	285.0303955078126	205.9281311035157	-520.4313964843752	275.9461059570314	50.11730957031253	-598.3716430664065	333.5825195312501	47.64785385131837	-595.467468261719	370.755828857422	76.19328308105472	-553.097839355469	226.9310760498048	1352.25927734375	-837.4370727539067	223.8929901123048	1115.727661132813	-796.8197631835942	216.9293518066407	1143.707763671875	-1032.24658203125	215.9362182617189	1302.221435546875	-972.9483032226567	136.4574127197266	1149.402099609375	-786.0029907226567	143.1736450195313	1283.132568359375	-794.3654785156255	31.42319107055665	1284.016723632813	-856.9166870117192	39.90399169921876	1299.022216796875	-898.2025756835942	-33.72346496582033	1015.532409667969	-862.2960815429692	47.97896575927736	983.111206054688	-846.9667968750005	-1.090661644935608	984.2863159179692	-835.7173461914067	-14.81283950805665	777.9450683593755	-941.1979980468755	-75.6923751831055	783.4006958007817	-887.5122070312505	-28.25396728515626	692.9974365234377	-961.374633789063	-81.62380981445315	706.5941162109377	-874.5544433593755	343.2475891113282	1161.57177734375	-792.6135864257817	316.7264709472657	1286.200561523438	-806.551391601563	415.7542114257815	1291.561767578125	-892.4990234375005	400.7021789550784	1299.529296875	-939.6716308593755	483.8704528808596	998.2244262695317	-935.6329956054692	407.3010864257815	973.536499023438	-909.673461914063	453.6887512207034	966.4916381835942	-909.0934448242192	442.2027893066409	814.8759155273442	-1075.333862304688	510.3714294433596	802.3255004882817	-1031.156982421875	453.2727966308596	734.1309204101565	-1124.782348632813	508.8589477539065	720.604919433594	-1039.046630859375	
136	1.35	114.7358474731446	865.4290161132817	-1034.15478515625	171.7880249023438	892.0746459960942	-847.494506835938	260.1688232421876	886.4238281250005	-839.1689453125005	352.9828491210939	855.3681640625005	-1010.075927734375	50.62340164184573	777.520385742188	-976.5098266601567	103.6011199951172	429.7120666503909	-1068.386108398438	219.8548126220704	431.1123046875002	-1083.414794921875	101.5338439941407	366.1988525390626	-1050.92236328125	152.9117431640626	350.5205078125001	-1109.894287109375	155.1975097656251	54.81839370727542	-999.7702026367192	243.9351654052736	64.49736785888675	-1026.405883789063	205.1688385009767	17.86022186279298	-955.2869262695317	220.0494537353517	16.66843032836915	-1139.872680664063	158.3538818359376	30.26171684265138	-1145.313598632813	115.8617553710938	19.298490524292	-1087.663208007813	397.4916992187502	759.8096313476565	-903.2109985351567	403.4802856445315	418.5924987792971	-886.3966674804692	291.6161193847657	383.3966369628907	-924.822143554688	407.2651367187502	380.5758361816407	-836.187377929688	370.9837341308595	326.8068237304689	-885.375610351563	350.5018005371095	197.551727294922	-583.5444335937502	276.6899719238282	171.2738037109376	-631.275817871094	284.8885192871095	210.5872192382814	-541.344909667969	280.8614196777345	52.60390472412112	-617.5561523437502	338.4039306640626	51.46812438964847	-614.156188964844	373.9595336914064	82.77695465087893	-571.957214355469	225.8731536865236	1353.916748046875	-848.794799804688	221.741424560547	1117.33837890625	-808.1387329101567	216.6932983398439	1145.074584960938	-1043.284423828125	215.6067962646486	1303.817138671875	-984.4450073242192	134.0579681396485	1151.335083007813	-797.9054565429692	141.3907165527344	1284.953247070313	-806.433471679688	29.93030738830568	1285.858520507813	-870.010131835938	39.04288864135744	1300.871459960938	-911.223999023438	-34.84194183349611	1016.761169433594	-878.8293457031255	46.83401107788087	984.3915405273442	-861.9802246093755	-2.963624715805055	985.0681152343755	-852.1287231445317	-13.88758850097657	780.4102172851567	-961.2461547851567	-75.61377716064456	784.7388305664067	-908.4923706054692	-27.15000343322755	696.0169677734377	-983.3884887695317	-81.62606048583987	707.7940063476565	-897.0789184570317	341.2294311523439	1162.987426757813	-802.8123168945317	315.2101440429689	1287.680297851563	-817.2880859375005	414.8774414062502	1292.721557617188	-902.6611328125005	400.112976074219	1300.623657226563	-949.9821777343755	481.9100341796877	998.934448242188	-944.0316772460942	405.146179199219	974.7977905273442	-918.104370117188	451.6188049316409	967.949096679688	-916.9211425781255	441.5210571289065	812.8379516601567	-1079.822021484375	509.6843566894534	801.7098999023442	-1035.346801757813	452.6412353515627	730.5750732421877	-1126.951782226563	508.3442993164065	719.6575927734377	-1040.862670898438	
137	1.36	114.1495819091797	866.210327148438	-1045.54736328125	170.111312866211	893.8281860351567	-858.5228881835942	258.4673461914064	888.0927734375005	-849.7590942382817	352.4566040039064	857.5292358398442	-1020.29345703125	49.93915939331058	778.5150756835942	-987.8204956054692	103.3323059082032	429.0122070312502	-1072.708251953125	219.7121124267579	429.9976806640627	-1087.213256835938	101.3591384887696	365.6995849609376	-1054.291381835938	152.7807922363282	349.3487548828126	-1112.926879882813	155.6960906982422	54.99589920043948	-999.5812988281255	244.1268920898439	64.35536193847659	-1026.516357421875	205.3073883056642	17.89511299133301	-955.1862792968755	219.9848785400392	16.77526473999024	-1139.82275390625	158.3707885742188	30.31413078308107	-1145.2314453125	115.9306945800782	19.24678230285645	-1087.578735351563	396.2685546875002	761.1730957031252	-914.2516479492192	404.7481079101565	419.0412597656252	-908.6853027343755	292.8192138671876	384.0424804687502	-948.1862792968755	408.6054382324221	381.5191345214845	-859.2118530273442	372.2241210937501	327.5807495117189	-908.2910766601567	350.7992248535157	201.6063842773439	-605.1600341796877	277.5008239746095	173.8652038574219	-652.924255371094	284.6942138671876	213.8984680175782	-563.0654907226565	286.0031738281251	54.61125946044925	-639.1202392578127	343.4509887695314	55.08045578002933	-635.3319091796877	377.3663024902345	88.64221954345706	-592.945007324219	224.7849578857423	1355.651977539063	-860.1881713867192	219.6518859863282	1119.079833984375	-819.286987304688	216.5363006591798	1146.45556640625	-1054.105834960938	215.3907470703126	1305.485961914063	-995.8688964843755	131.6200103759766	1153.505126953125	-809.7066040039067	139.6117553710938	1286.98291015625	-818.4707031250005	28.49605178833009	1287.922119140625	-883.1953125000005	38.31369400024415	1302.895385742188	-924.3152465820317	-35.88459396362306	1018.216918945313	-895.5042114257817	45.68577194213869	985.8572387695317	-877.041625976563	-4.82751512527466	986.068237304688	-868.6494140625005	-12.7831792831421	783.2033081054692	-981.3991699218755	-75.39480590820315	786.4123535156255	-929.6809692382817	-25.78986549377443	699.4063720703127	-1005.531982421875	-81.49283599853518	709.3555908203127	-919.8643188476567	339.2020263671876	1164.5419921875	-812.8338012695317	313.7319335937501	1289.281372070313	-827.8876953125005	414.0675354003909	1293.9580078125	-912.6449584960942	399.605651855469	1301.794921875	-960.1161499023442	479.8987121582034	999.6967773437505	-952.3298950195317	403.0198364257815	976.1909790039067	-926.3909301757817	449.5300903320315	969.497192382813	-924.654418945313	440.9908142089846	811.061401367188	-1084.201538085938	509.0558166503909	801.3168334960942	-1039.363403320313	452.2457580566409	727.3776855468752	-1129.02880859375	507.9142150878909	719.0158691406252	-1042.5830078125	
